<?xml version="1.0" encoding="utf-8" standalone="no"?>
<!DOCTYPE svg PUBLIC "-//W3C//DTD SVG 1.1//EN"
  "http://www.w3.org/Graphics/SVG/1.1/DTD/svg11.dtd">
<svg xmlns:xlink="http://www.w3.org/1999/xlink" width="798.833125pt" height="228.69625pt" viewBox="0 0 798.833125 228.69625" xmlns="http://www.w3.org/2000/svg" version="1.1">
 <metadata>
  <rdf:RDF xmlns:dc="http://purl.org/dc/elements/1.1/" xmlns:cc="http://creativecommons.org/ns#" xmlns:rdf="http://www.w3.org/1999/02/22-rdf-syntax-ns#">
   <cc:Work>
    <dc:type rdf:resource="http://purl.org/dc/dcmitype/StillImage"/>
    <dc:date>2026-05-23T19:00:17.563492</dc:date>
    <dc:format>image/svg+xml</dc:format>
    <dc:creator>
     <cc:Agent>
      <dc:title>Matplotlib v3.10.8, https://matplotlib.org/</dc:title>
     </cc:Agent>
    </dc:creator>
   </cc:Work>
  </rdf:RDF>
 </metadata>
 <defs>
  <style type="text/css">*{stroke-linejoin: round; stroke-linecap: butt}</style>
 </defs>
 <g id="figure_1">
  <g id="patch_1">
   <path d="M 0 228.69625 
L 798.833125 228.69625 
L 798.833125 0 
L 0 0 
z
" style="fill: #ffffff"/>
  </g>
  <g id="axes_1">
   <g id="patch_2">
    <path d="M 40.603125 191.14 
L 271.531752 191.14 
L 271.531752 29.58 
L 40.603125 29.58 
z
" style="fill: #ffffff"/>
   </g>
   <g id="matplotlib.axis_1">
    <g id="xtick_1">
     <g id="line2d_1">
      <defs>
       <path id="m9b16b86066" d="M 0 0 
L 0 3.5 
" style="stroke: #000000; stroke-width: 0.8"/>
      </defs>
      <g>
       <use xlink:href="#m9b16b86066" x="82.812302" y="191.14" style="stroke: #000000; stroke-width: 0.8"/>
      </g>
     </g>
     <g id="text_1">
      <!-- 20 -->
      <g transform="translate(76.449802 205.738437) scale(0.1 -0.1)">
       <defs>
        <path id="DejaVuSans-32" d="M 1228 531 
L 3431 531 
L 3431 0 
L 469 0 
L 469 531 
Q 828 903 1448 1529 
Q 2069 2156 2228 2338 
Q 2531 2678 2651 2914 
Q 2772 3150 2772 3378 
Q 2772 3750 2511 3984 
Q 2250 4219 1831 4219 
Q 1534 4219 1204 4116 
Q 875 4013 500 3803 
L 500 4441 
Q 881 4594 1212 4672 
Q 1544 4750 1819 4750 
Q 2544 4750 2975 4387 
Q 3406 4025 3406 3419 
Q 3406 3131 3298 2873 
Q 3191 2616 2906 2266 
Q 2828 2175 2409 1742 
Q 1991 1309 1228 531 
z
" transform="scale(0.015625)"/>
        <path id="DejaVuSans-30" d="M 2034 4250 
Q 1547 4250 1301 3770 
Q 1056 3291 1056 2328 
Q 1056 1369 1301 889 
Q 1547 409 2034 409 
Q 2525 409 2770 889 
Q 3016 1369 3016 2328 
Q 3016 3291 2770 3770 
Q 2525 4250 2034 4250 
z
M 2034 4750 
Q 2819 4750 3233 4129 
Q 3647 3509 3647 2328 
Q 3647 1150 3233 529 
Q 2819 -91 2034 -91 
Q 1250 -91 836 529 
Q 422 1150 422 2328 
Q 422 3509 836 4129 
Q 1250 4750 2034 4750 
z
" transform="scale(0.015625)"/>
       </defs>
       <use xlink:href="#DejaVuSans-32"/>
       <use xlink:href="#DejaVuSans-30" transform="translate(63.623047 0)"/>
      </g>
     </g>
    </g>
    <g id="xtick_2">
     <g id="line2d_2">
      <g>
       <use xlink:href="#m9b16b86066" x="127.243014" y="191.14" style="stroke: #000000; stroke-width: 0.8"/>
      </g>
     </g>
     <g id="text_2">
      <!-- 40 -->
      <g transform="translate(120.880514 205.738437) scale(0.1 -0.1)">
       <defs>
        <path id="DejaVuSans-34" d="M 2419 4116 
L 825 1625 
L 2419 1625 
L 2419 4116 
z
M 2253 4666 
L 3047 4666 
L 3047 1625 
L 3713 1625 
L 3713 1100 
L 3047 1100 
L 3047 0 
L 2419 0 
L 2419 1100 
L 313 1100 
L 313 1709 
L 2253 4666 
z
" transform="scale(0.015625)"/>
       </defs>
       <use xlink:href="#DejaVuSans-34"/>
       <use xlink:href="#DejaVuSans-30" transform="translate(63.623047 0)"/>
      </g>
     </g>
    </g>
    <g id="xtick_3">
     <g id="line2d_3">
      <g>
       <use xlink:href="#m9b16b86066" x="171.673726" y="191.14" style="stroke: #000000; stroke-width: 0.8"/>
      </g>
     </g>
     <g id="text_3">
      <!-- 60 -->
      <g transform="translate(165.311226 205.738437) scale(0.1 -0.1)">
       <defs>
        <path id="DejaVuSans-36" d="M 2113 2584 
Q 1688 2584 1439 2293 
Q 1191 2003 1191 1497 
Q 1191 994 1439 701 
Q 1688 409 2113 409 
Q 2538 409 2786 701 
Q 3034 994 3034 1497 
Q 3034 2003 2786 2293 
Q 2538 2584 2113 2584 
z
M 3366 4563 
L 3366 3988 
Q 3128 4100 2886 4159 
Q 2644 4219 2406 4219 
Q 1781 4219 1451 3797 
Q 1122 3375 1075 2522 
Q 1259 2794 1537 2939 
Q 1816 3084 2150 3084 
Q 2853 3084 3261 2657 
Q 3669 2231 3669 1497 
Q 3669 778 3244 343 
Q 2819 -91 2113 -91 
Q 1303 -91 875 529 
Q 447 1150 447 2328 
Q 447 3434 972 4092 
Q 1497 4750 2381 4750 
Q 2619 4750 2861 4703 
Q 3103 4656 3366 4563 
z
" transform="scale(0.015625)"/>
       </defs>
       <use xlink:href="#DejaVuSans-36"/>
       <use xlink:href="#DejaVuSans-30" transform="translate(63.623047 0)"/>
      </g>
     </g>
    </g>
    <g id="xtick_4">
     <g id="line2d_4">
      <g>
       <use xlink:href="#m9b16b86066" x="216.104439" y="191.14" style="stroke: #000000; stroke-width: 0.8"/>
      </g>
     </g>
     <g id="text_4">
      <!-- 80 -->
      <g transform="translate(209.741939 205.738437) scale(0.1 -0.1)">
       <defs>
        <path id="DejaVuSans-38" d="M 2034 2216 
Q 1584 2216 1326 1975 
Q 1069 1734 1069 1313 
Q 1069 891 1326 650 
Q 1584 409 2034 409 
Q 2484 409 2743 651 
Q 3003 894 3003 1313 
Q 3003 1734 2745 1975 
Q 2488 2216 2034 2216 
z
M 1403 2484 
Q 997 2584 770 2862 
Q 544 3141 544 3541 
Q 544 4100 942 4425 
Q 1341 4750 2034 4750 
Q 2731 4750 3128 4425 
Q 3525 4100 3525 3541 
Q 3525 3141 3298 2862 
Q 3072 2584 2669 2484 
Q 3125 2378 3379 2068 
Q 3634 1759 3634 1313 
Q 3634 634 3220 271 
Q 2806 -91 2034 -91 
Q 1263 -91 848 271 
Q 434 634 434 1313 
Q 434 1759 690 2068 
Q 947 2378 1403 2484 
z
M 1172 3481 
Q 1172 3119 1398 2916 
Q 1625 2713 2034 2713 
Q 2441 2713 2670 2916 
Q 2900 3119 2900 3481 
Q 2900 3844 2670 4047 
Q 2441 4250 2034 4250 
Q 1625 4250 1398 4047 
Q 1172 3844 1172 3481 
z
" transform="scale(0.015625)"/>
       </defs>
       <use xlink:href="#DejaVuSans-38"/>
       <use xlink:href="#DejaVuSans-30" transform="translate(63.623047 0)"/>
      </g>
     </g>
    </g>
    <g id="xtick_5">
     <g id="line2d_5">
      <g>
       <use xlink:href="#m9b16b86066" x="260.535151" y="191.14" style="stroke: #000000; stroke-width: 0.8"/>
      </g>
     </g>
     <g id="text_5">
      <!-- 100 -->
      <g transform="translate(250.991401 205.738437) scale(0.1 -0.1)">
       <defs>
        <path id="DejaVuSans-31" d="M 794 531 
L 1825 531 
L 1825 4091 
L 703 3866 
L 703 4441 
L 1819 4666 
L 2450 4666 
L 2450 531 
L 3481 531 
L 3481 0 
L 794 0 
L 794 531 
z
" transform="scale(0.015625)"/>
       </defs>
       <use xlink:href="#DejaVuSans-31"/>
       <use xlink:href="#DejaVuSans-30" transform="translate(63.623047 0)"/>
       <use xlink:href="#DejaVuSans-30" transform="translate(127.246094 0)"/>
      </g>
     </g>
    </g>
    <g id="text_6">
     <!-- Solved instances -->
     <g transform="translate(113.859626 219.416562) scale(0.1 -0.1)">
      <defs>
       <path id="DejaVuSans-53" d="M 3425 4513 
L 3425 3897 
Q 3066 4069 2747 4153 
Q 2428 4238 2131 4238 
Q 1616 4238 1336 4038 
Q 1056 3838 1056 3469 
Q 1056 3159 1242 3001 
Q 1428 2844 1947 2747 
L 2328 2669 
Q 3034 2534 3370 2195 
Q 3706 1856 3706 1288 
Q 3706 609 3251 259 
Q 2797 -91 1919 -91 
Q 1588 -91 1214 -16 
Q 841 59 441 206 
L 441 856 
Q 825 641 1194 531 
Q 1563 422 1919 422 
Q 2459 422 2753 634 
Q 3047 847 3047 1241 
Q 3047 1584 2836 1778 
Q 2625 1972 2144 2069 
L 1759 2144 
Q 1053 2284 737 2584 
Q 422 2884 422 3419 
Q 422 4038 858 4394 
Q 1294 4750 2059 4750 
Q 2388 4750 2728 4690 
Q 3069 4631 3425 4513 
z
" transform="scale(0.015625)"/>
       <path id="DejaVuSans-6f" d="M 1959 3097 
Q 1497 3097 1228 2736 
Q 959 2375 959 1747 
Q 959 1119 1226 758 
Q 1494 397 1959 397 
Q 2419 397 2687 759 
Q 2956 1122 2956 1747 
Q 2956 2369 2687 2733 
Q 2419 3097 1959 3097 
z
M 1959 3584 
Q 2709 3584 3137 3096 
Q 3566 2609 3566 1747 
Q 3566 888 3137 398 
Q 2709 -91 1959 -91 
Q 1206 -91 779 398 
Q 353 888 353 1747 
Q 353 2609 779 3096 
Q 1206 3584 1959 3584 
z
" transform="scale(0.015625)"/>
       <path id="DejaVuSans-6c" d="M 603 4863 
L 1178 4863 
L 1178 0 
L 603 0 
L 603 4863 
z
" transform="scale(0.015625)"/>
       <path id="DejaVuSans-76" d="M 191 3500 
L 800 3500 
L 1894 563 
L 2988 3500 
L 3597 3500 
L 2284 0 
L 1503 0 
L 191 3500 
z
" transform="scale(0.015625)"/>
       <path id="DejaVuSans-65" d="M 3597 1894 
L 3597 1613 
L 953 1613 
Q 991 1019 1311 708 
Q 1631 397 2203 397 
Q 2534 397 2845 478 
Q 3156 559 3463 722 
L 3463 178 
Q 3153 47 2828 -22 
Q 2503 -91 2169 -91 
Q 1331 -91 842 396 
Q 353 884 353 1716 
Q 353 2575 817 3079 
Q 1281 3584 2069 3584 
Q 2775 3584 3186 3129 
Q 3597 2675 3597 1894 
z
M 3022 2063 
Q 3016 2534 2758 2815 
Q 2500 3097 2075 3097 
Q 1594 3097 1305 2825 
Q 1016 2553 972 2059 
L 3022 2063 
z
" transform="scale(0.015625)"/>
       <path id="DejaVuSans-64" d="M 2906 2969 
L 2906 4863 
L 3481 4863 
L 3481 0 
L 2906 0 
L 2906 525 
Q 2725 213 2448 61 
Q 2172 -91 1784 -91 
Q 1150 -91 751 415 
Q 353 922 353 1747 
Q 353 2572 751 3078 
Q 1150 3584 1784 3584 
Q 2172 3584 2448 3432 
Q 2725 3281 2906 2969 
z
M 947 1747 
Q 947 1113 1208 752 
Q 1469 391 1925 391 
Q 2381 391 2643 752 
Q 2906 1113 2906 1747 
Q 2906 2381 2643 2742 
Q 2381 3103 1925 3103 
Q 1469 3103 1208 2742 
Q 947 2381 947 1747 
z
" transform="scale(0.015625)"/>
       <path id="DejaVuSans-20" transform="scale(0.015625)"/>
       <path id="DejaVuSans-69" d="M 603 3500 
L 1178 3500 
L 1178 0 
L 603 0 
L 603 3500 
z
M 603 4863 
L 1178 4863 
L 1178 4134 
L 603 4134 
L 603 4863 
z
" transform="scale(0.015625)"/>
       <path id="DejaVuSans-6e" d="M 3513 2113 
L 3513 0 
L 2938 0 
L 2938 2094 
Q 2938 2591 2744 2837 
Q 2550 3084 2163 3084 
Q 1697 3084 1428 2787 
Q 1159 2491 1159 1978 
L 1159 0 
L 581 0 
L 581 3500 
L 1159 3500 
L 1159 2956 
Q 1366 3272 1645 3428 
Q 1925 3584 2291 3584 
Q 2894 3584 3203 3211 
Q 3513 2838 3513 2113 
z
" transform="scale(0.015625)"/>
       <path id="DejaVuSans-73" d="M 2834 3397 
L 2834 2853 
Q 2591 2978 2328 3040 
Q 2066 3103 1784 3103 
Q 1356 3103 1142 2972 
Q 928 2841 928 2578 
Q 928 2378 1081 2264 
Q 1234 2150 1697 2047 
L 1894 2003 
Q 2506 1872 2764 1633 
Q 3022 1394 3022 966 
Q 3022 478 2636 193 
Q 2250 -91 1575 -91 
Q 1294 -91 989 -36 
Q 684 19 347 128 
L 347 722 
Q 666 556 975 473 
Q 1284 391 1588 391 
Q 1994 391 2212 530 
Q 2431 669 2431 922 
Q 2431 1156 2273 1281 
Q 2116 1406 1581 1522 
L 1381 1569 
Q 847 1681 609 1914 
Q 372 2147 372 2553 
Q 372 3047 722 3315 
Q 1072 3584 1716 3584 
Q 2034 3584 2315 3537 
Q 2597 3491 2834 3397 
z
" transform="scale(0.015625)"/>
       <path id="DejaVuSans-74" d="M 1172 4494 
L 1172 3500 
L 2356 3500 
L 2356 3053 
L 1172 3053 
L 1172 1153 
Q 1172 725 1289 603 
Q 1406 481 1766 481 
L 2356 481 
L 2356 0 
L 1766 0 
Q 1100 0 847 248 
Q 594 497 594 1153 
L 594 3053 
L 172 3053 
L 172 3500 
L 594 3500 
L 594 4494 
L 1172 4494 
z
" transform="scale(0.015625)"/>
       <path id="DejaVuSans-61" d="M 2194 1759 
Q 1497 1759 1228 1600 
Q 959 1441 959 1056 
Q 959 750 1161 570 
Q 1363 391 1709 391 
Q 2188 391 2477 730 
Q 2766 1069 2766 1631 
L 2766 1759 
L 2194 1759 
z
M 3341 1997 
L 3341 0 
L 2766 0 
L 2766 531 
Q 2569 213 2275 61 
Q 1981 -91 1556 -91 
Q 1019 -91 701 211 
Q 384 513 384 1019 
Q 384 1609 779 1909 
Q 1175 2209 1959 2209 
L 2766 2209 
L 2766 2266 
Q 2766 2663 2505 2880 
Q 2244 3097 1772 3097 
Q 1472 3097 1187 3025 
Q 903 2953 641 2809 
L 641 3341 
Q 956 3463 1253 3523 
Q 1550 3584 1831 3584 
Q 2591 3584 2966 3190 
Q 3341 2797 3341 1997 
z
" transform="scale(0.015625)"/>
       <path id="DejaVuSans-63" d="M 3122 3366 
L 3122 2828 
Q 2878 2963 2633 3030 
Q 2388 3097 2138 3097 
Q 1578 3097 1268 2742 
Q 959 2388 959 1747 
Q 959 1106 1268 751 
Q 1578 397 2138 397 
Q 2388 397 2633 464 
Q 2878 531 3122 666 
L 3122 134 
Q 2881 22 2623 -34 
Q 2366 -91 2075 -91 
Q 1284 -91 818 406 
Q 353 903 353 1747 
Q 353 2603 823 3093 
Q 1294 3584 2113 3584 
Q 2378 3584 2631 3529 
Q 2884 3475 3122 3366 
z
" transform="scale(0.015625)"/>
      </defs>
      <use xlink:href="#DejaVuSans-53"/>
      <use xlink:href="#DejaVuSans-6f" transform="translate(63.476562 0)"/>
      <use xlink:href="#DejaVuSans-6c" transform="translate(124.658203 0)"/>
      <use xlink:href="#DejaVuSans-76" transform="translate(152.441406 0)"/>
      <use xlink:href="#DejaVuSans-65" transform="translate(211.621094 0)"/>
      <use xlink:href="#DejaVuSans-64" transform="translate(273.144531 0)"/>
      <use xlink:href="#DejaVuSans-20" transform="translate(336.621094 0)"/>
      <use xlink:href="#DejaVuSans-69" transform="translate(368.408203 0)"/>
      <use xlink:href="#DejaVuSans-6e" transform="translate(396.191406 0)"/>
      <use xlink:href="#DejaVuSans-73" transform="translate(459.570312 0)"/>
      <use xlink:href="#DejaVuSans-74" transform="translate(511.669922 0)"/>
      <use xlink:href="#DejaVuSans-61" transform="translate(550.878906 0)"/>
      <use xlink:href="#DejaVuSans-6e" transform="translate(612.158203 0)"/>
      <use xlink:href="#DejaVuSans-63" transform="translate(675.537109 0)"/>
      <use xlink:href="#DejaVuSans-65" transform="translate(730.517578 0)"/>
      <use xlink:href="#DejaVuSans-73" transform="translate(792.041016 0)"/>
     </g>
    </g>
   </g>
   <g id="matplotlib.axis_2">
    <g id="ytick_1">
     <g id="line2d_6">
      <path d="M 40.603125 184.953267 
L 271.531752 184.953267 
" clip-path="url(#p60cc387d9d)" style="fill: none; stroke-dasharray: 2.59,1.12; stroke-dashoffset: 0; stroke: #b0b0b0; stroke-opacity: 0.35; stroke-width: 0.7"/>
     </g>
     <g id="line2d_7">
      <defs>
       <path id="m30f53f93bc" d="M 0 0 
L -3.5 0 
" style="stroke: #000000; stroke-width: 0.8"/>
      </defs>
      <g>
       <use xlink:href="#m30f53f93bc" x="40.603125" y="184.953267" style="stroke: #000000; stroke-width: 0.8"/>
      </g>
     </g>
     <g id="text_7">
      <!-- 0 -->
      <g transform="translate(27.240625 188.752486) scale(0.1 -0.1)">
       <use xlink:href="#DejaVuSans-30"/>
      </g>
     </g>
    </g>
    <g id="ytick_2">
     <g id="line2d_8">
      <path d="M 40.603125 160.059684 
L 271.531752 160.059684 
" clip-path="url(#p60cc387d9d)" style="fill: none; stroke-dasharray: 2.59,1.12; stroke-dashoffset: 0; stroke: #b0b0b0; stroke-opacity: 0.35; stroke-width: 0.7"/>
     </g>
     <g id="line2d_9">
      <g>
       <use xlink:href="#m30f53f93bc" x="40.603125" y="160.059684" style="stroke: #000000; stroke-width: 0.8"/>
      </g>
     </g>
     <g id="text_8">
      <!-- 10 -->
      <g transform="translate(20.878125 163.858903) scale(0.1 -0.1)">
       <use xlink:href="#DejaVuSans-31"/>
       <use xlink:href="#DejaVuSans-30" transform="translate(63.623047 0)"/>
      </g>
     </g>
    </g>
    <g id="ytick_3">
     <g id="line2d_10">
      <path d="M 40.603125 135.166101 
L 271.531752 135.166101 
" clip-path="url(#p60cc387d9d)" style="fill: none; stroke-dasharray: 2.59,1.12; stroke-dashoffset: 0; stroke: #b0b0b0; stroke-opacity: 0.35; stroke-width: 0.7"/>
     </g>
     <g id="line2d_11">
      <g>
       <use xlink:href="#m30f53f93bc" x="40.603125" y="135.166101" style="stroke: #000000; stroke-width: 0.8"/>
      </g>
     </g>
     <g id="text_9">
      <!-- 20 -->
      <g transform="translate(20.878125 138.96532) scale(0.1 -0.1)">
       <use xlink:href="#DejaVuSans-32"/>
       <use xlink:href="#DejaVuSans-30" transform="translate(63.623047 0)"/>
      </g>
     </g>
    </g>
    <g id="ytick_4">
     <g id="line2d_12">
      <path d="M 40.603125 110.272518 
L 271.531752 110.272518 
" clip-path="url(#p60cc387d9d)" style="fill: none; stroke-dasharray: 2.59,1.12; stroke-dashoffset: 0; stroke: #b0b0b0; stroke-opacity: 0.35; stroke-width: 0.7"/>
     </g>
     <g id="line2d_13">
      <g>
       <use xlink:href="#m30f53f93bc" x="40.603125" y="110.272518" style="stroke: #000000; stroke-width: 0.8"/>
      </g>
     </g>
     <g id="text_10">
      <!-- 30 -->
      <g transform="translate(20.878125 114.071737) scale(0.1 -0.1)">
       <defs>
        <path id="DejaVuSans-33" d="M 2597 2516 
Q 3050 2419 3304 2112 
Q 3559 1806 3559 1356 
Q 3559 666 3084 287 
Q 2609 -91 1734 -91 
Q 1441 -91 1130 -33 
Q 819 25 488 141 
L 488 750 
Q 750 597 1062 519 
Q 1375 441 1716 441 
Q 2309 441 2620 675 
Q 2931 909 2931 1356 
Q 2931 1769 2642 2001 
Q 2353 2234 1838 2234 
L 1294 2234 
L 1294 2753 
L 1863 2753 
Q 2328 2753 2575 2939 
Q 2822 3125 2822 3475 
Q 2822 3834 2567 4026 
Q 2313 4219 1838 4219 
Q 1578 4219 1281 4162 
Q 984 4106 628 3988 
L 628 4550 
Q 988 4650 1302 4700 
Q 1616 4750 1894 4750 
Q 2613 4750 3031 4423 
Q 3450 4097 3450 3541 
Q 3450 3153 3228 2886 
Q 3006 2619 2597 2516 
z
" transform="scale(0.015625)"/>
       </defs>
       <use xlink:href="#DejaVuSans-33"/>
       <use xlink:href="#DejaVuSans-30" transform="translate(63.623047 0)"/>
      </g>
     </g>
    </g>
    <g id="ytick_5">
     <g id="line2d_14">
      <path d="M 40.603125 85.378935 
L 271.531752 85.378935 
" clip-path="url(#p60cc387d9d)" style="fill: none; stroke-dasharray: 2.59,1.12; stroke-dashoffset: 0; stroke: #b0b0b0; stroke-opacity: 0.35; stroke-width: 0.7"/>
     </g>
     <g id="line2d_15">
      <g>
       <use xlink:href="#m30f53f93bc" x="40.603125" y="85.378935" style="stroke: #000000; stroke-width: 0.8"/>
      </g>
     </g>
     <g id="text_11">
      <!-- 40 -->
      <g transform="translate(20.878125 89.178154) scale(0.1 -0.1)">
       <use xlink:href="#DejaVuSans-34"/>
       <use xlink:href="#DejaVuSans-30" transform="translate(63.623047 0)"/>
      </g>
     </g>
    </g>
    <g id="ytick_6">
     <g id="line2d_16">
      <path d="M 40.603125 60.485352 
L 271.531752 60.485352 
" clip-path="url(#p60cc387d9d)" style="fill: none; stroke-dasharray: 2.59,1.12; stroke-dashoffset: 0; stroke: #b0b0b0; stroke-opacity: 0.35; stroke-width: 0.7"/>
     </g>
     <g id="line2d_17">
      <g>
       <use xlink:href="#m30f53f93bc" x="40.603125" y="60.485352" style="stroke: #000000; stroke-width: 0.8"/>
      </g>
     </g>
     <g id="text_12">
      <!-- 50 -->
      <g transform="translate(20.878125 64.28457) scale(0.1 -0.1)">
       <defs>
        <path id="DejaVuSans-35" d="M 691 4666 
L 3169 4666 
L 3169 4134 
L 1269 4134 
L 1269 2991 
Q 1406 3038 1543 3061 
Q 1681 3084 1819 3084 
Q 2600 3084 3056 2656 
Q 3513 2228 3513 1497 
Q 3513 744 3044 326 
Q 2575 -91 1722 -91 
Q 1428 -91 1123 -41 
Q 819 9 494 109 
L 494 744 
Q 775 591 1075 516 
Q 1375 441 1709 441 
Q 2250 441 2565 725 
Q 2881 1009 2881 1497 
Q 2881 1984 2565 2268 
Q 2250 2553 1709 2553 
Q 1456 2553 1204 2497 
Q 953 2441 691 2322 
L 691 4666 
z
" transform="scale(0.015625)"/>
       </defs>
       <use xlink:href="#DejaVuSans-35"/>
       <use xlink:href="#DejaVuSans-30" transform="translate(63.623047 0)"/>
      </g>
     </g>
    </g>
    <g id="ytick_7">
     <g id="line2d_18">
      <path d="M 40.603125 35.591768 
L 271.531752 35.591768 
" clip-path="url(#p60cc387d9d)" style="fill: none; stroke-dasharray: 2.59,1.12; stroke-dashoffset: 0; stroke: #b0b0b0; stroke-opacity: 0.35; stroke-width: 0.7"/>
     </g>
     <g id="line2d_19">
      <g>
       <use xlink:href="#m30f53f93bc" x="40.603125" y="35.591768" style="stroke: #000000; stroke-width: 0.8"/>
      </g>
     </g>
     <g id="text_13">
      <!-- 60 -->
      <g transform="translate(20.878125 39.390987) scale(0.1 -0.1)">
       <use xlink:href="#DejaVuSans-36"/>
       <use xlink:href="#DejaVuSans-30" transform="translate(63.623047 0)"/>
      </g>
     </g>
    </g>
    <g id="text_14">
     <!-- Total time (s) -->
     <g transform="translate(14.798438 143.017031) rotate(-90) scale(0.1 -0.1)">
      <defs>
       <path id="DejaVuSans-54" d="M -19 4666 
L 3928 4666 
L 3928 4134 
L 2272 4134 
L 2272 0 
L 1638 0 
L 1638 4134 
L -19 4134 
L -19 4666 
z
" transform="scale(0.015625)"/>
       <path id="DejaVuSans-6d" d="M 3328 2828 
Q 3544 3216 3844 3400 
Q 4144 3584 4550 3584 
Q 5097 3584 5394 3201 
Q 5691 2819 5691 2113 
L 5691 0 
L 5113 0 
L 5113 2094 
Q 5113 2597 4934 2840 
Q 4756 3084 4391 3084 
Q 3944 3084 3684 2787 
Q 3425 2491 3425 1978 
L 3425 0 
L 2847 0 
L 2847 2094 
Q 2847 2600 2669 2842 
Q 2491 3084 2119 3084 
Q 1678 3084 1418 2786 
Q 1159 2488 1159 1978 
L 1159 0 
L 581 0 
L 581 3500 
L 1159 3500 
L 1159 2956 
Q 1356 3278 1631 3431 
Q 1906 3584 2284 3584 
Q 2666 3584 2933 3390 
Q 3200 3197 3328 2828 
z
" transform="scale(0.015625)"/>
       <path id="DejaVuSans-28" d="M 1984 4856 
Q 1566 4138 1362 3434 
Q 1159 2731 1159 2009 
Q 1159 1288 1364 580 
Q 1569 -128 1984 -844 
L 1484 -844 
Q 1016 -109 783 600 
Q 550 1309 550 2009 
Q 550 2706 781 3412 
Q 1013 4119 1484 4856 
L 1984 4856 
z
" transform="scale(0.015625)"/>
       <path id="DejaVuSans-29" d="M 513 4856 
L 1013 4856 
Q 1481 4119 1714 3412 
Q 1947 2706 1947 2009 
Q 1947 1309 1714 600 
Q 1481 -109 1013 -844 
L 513 -844 
Q 928 -128 1133 580 
Q 1338 1288 1338 2009 
Q 1338 2731 1133 3434 
Q 928 4138 513 4856 
z
" transform="scale(0.015625)"/>
      </defs>
      <use xlink:href="#DejaVuSans-54"/>
      <use xlink:href="#DejaVuSans-6f" transform="translate(44.083984 0)"/>
      <use xlink:href="#DejaVuSans-74" transform="translate(105.265625 0)"/>
      <use xlink:href="#DejaVuSans-61" transform="translate(144.474609 0)"/>
      <use xlink:href="#DejaVuSans-6c" transform="translate(205.753906 0)"/>
      <use xlink:href="#DejaVuSans-20" transform="translate(233.537109 0)"/>
      <use xlink:href="#DejaVuSans-74" transform="translate(265.324219 0)"/>
      <use xlink:href="#DejaVuSans-69" transform="translate(304.533203 0)"/>
      <use xlink:href="#DejaVuSans-6d" transform="translate(332.316406 0)"/>
      <use xlink:href="#DejaVuSans-65" transform="translate(429.728516 0)"/>
      <use xlink:href="#DejaVuSans-20" transform="translate(491.251953 0)"/>
      <use xlink:href="#DejaVuSans-28" transform="translate(523.039062 0)"/>
      <use xlink:href="#DejaVuSans-73" transform="translate(562.052734 0)"/>
      <use xlink:href="#DejaVuSans-29" transform="translate(614.152344 0)"/>
     </g>
    </g>
   </g>
   <g id="line2d_20">
    <path d="M 40.603125 183.474959 
L 42.824661 183.457858 
L 45.046196 183.431189 
L 47.267732 183.430537 
L 49.489267 183.426464 
L 51.710803 183.426192 
L 53.932339 183.421939 
L 56.153874 183.421891 
L 58.37541 183.399335 
L 60.596946 183.391466 
L 62.818481 183.383386 
L 65.040017 183.380729 
L 67.261552 183.376411 
L 69.483088 183.364771 
L 71.704624 183.359677 
L 73.926159 183.35487 
L 76.147695 183.354066 
L 78.36923 183.284376 
L 80.590766 183.283032 
L 82.812302 183.282818 
L 85.033837 183.197854 
L 87.255373 183.186581 
L 89.476909 183.130761 
L 91.698444 183.074964 
L 93.91998 182.928017 
L 96.141515 182.597246 
L 98.363051 182.561718 
L 100.584587 181.961596 
L 102.806122 181.951002 
L 105.027658 181.906412 
L 107.249194 181.459542 
L 109.470729 181.160944 
L 111.692265 181.147649 
L 113.9138 180.806583 
L 116.135336 180.697281 
L 118.356872 180.413805 
L 120.578407 180.332286 
L 122.799943 180.021308 
L 125.021478 179.287981 
L 127.243014 178.751706 
L 129.46455 177.907452 
L 131.686085 174.994684 
L 133.907621 174.943647 
L 136.129157 174.796166 
L 138.350692 171.186098 
L 140.572228 170.83224 
L 142.793763 169.247721 
L 145.015299 167.721426 
L 147.236835 167.320017 
L 149.45837 167.079159 
L 151.679906 166.16322 
L 153.901441 165.625996 
L 156.122977 165.387697 
L 158.344513 165.379457 
L 160.566048 165.082103 
L 162.787584 164.646714 
L 165.00912 164.577237 
L 167.230655 164.458768 
L 169.452191 163.273042 
L 171.673726 162.754061 
L 173.895262 161.126999 
L 176.116798 161.061231 
L 178.338333 161.013222 
L 180.559869 160.678047 
L 182.781405 160.31283 
L 185.00294 160.1528 
L 187.224476 159.974612 
L 189.446011 159.134385 
L 191.667547 158.659186 
L 193.889083 157.194091 
L 196.110618 155.981197 
L 198.332154 155.869337 
L 200.553689 155.190328 
L 202.775225 155.139855 
L 204.996761 154.944291 
L 207.218296 154.645967 
L 209.439832 154.372734 
L 211.661368 153.597698 
L 213.882903 151.234052 
L 216.104439 150.753163 
L 218.325974 149.110398 
L 220.54751 147.412079 
L 222.769046 146.501588 
L 224.990581 145.836643 
L 227.212117 145.436585 
L 229.433652 144.773271 
L 231.655188 144.347508 
L 233.876724 143.714884 
L 236.098259 143.612981 
L 238.319795 139.823021 
L 240.541331 138.581888 
L 242.762866 134.260169 
L 244.984402 133.099592 
L 247.205937 132.885988 
L 249.427473 130.252744 
L 251.649009 130.225379 
L 253.870544 120.778346 
L 256.09208 118.885356 
L 258.313616 116.597138 
L 260.535151 96.889884 
" clip-path="url(#p60cc387d9d)" style="fill: none; stroke: #4c78a8; stroke-width: 1.8; stroke-linecap: square"/>
    <defs>
     <path id="md4e2b9cfa8" d="M 0 1.9 
C 0.503886 1.9 0.987202 1.699804 1.343503 1.343503 
C 1.699804 0.987202 1.9 0.503886 1.9 0 
C 1.9 -0.503886 1.699804 -0.987202 1.343503 -1.343503 
C 0.987202 -1.699804 0.503886 -1.9 0 -1.9 
C -0.503886 -1.9 -0.987202 -1.699804 -1.343503 -1.343503 
C -1.699804 -0.987202 -1.9 -0.503886 -1.9 0 
C -1.9 0.503886 -1.699804 0.987202 -1.343503 1.343503 
C -0.987202 1.699804 -0.503886 1.9 0 1.9 
z
" style="stroke: #4c78a8"/>
    </defs>
    <g clip-path="url(#p60cc387d9d)">
     <use xlink:href="#md4e2b9cfa8" x="40.603125" y="183.474959" style="fill: #4c78a8; stroke: #4c78a8"/>
     <use xlink:href="#md4e2b9cfa8" x="67.261552" y="183.376411" style="fill: #4c78a8; stroke: #4c78a8"/>
     <use xlink:href="#md4e2b9cfa8" x="93.91998" y="182.928017" style="fill: #4c78a8; stroke: #4c78a8"/>
     <use xlink:href="#md4e2b9cfa8" x="120.578407" y="180.332286" style="fill: #4c78a8; stroke: #4c78a8"/>
     <use xlink:href="#md4e2b9cfa8" x="147.236835" y="167.320017" style="fill: #4c78a8; stroke: #4c78a8"/>
     <use xlink:href="#md4e2b9cfa8" x="173.895262" y="161.126999" style="fill: #4c78a8; stroke: #4c78a8"/>
     <use xlink:href="#md4e2b9cfa8" x="200.553689" y="155.190328" style="fill: #4c78a8; stroke: #4c78a8"/>
     <use xlink:href="#md4e2b9cfa8" x="227.212117" y="145.436585" style="fill: #4c78a8; stroke: #4c78a8"/>
     <use xlink:href="#md4e2b9cfa8" x="253.870544" y="120.778346" style="fill: #4c78a8; stroke: #4c78a8"/>
    </g>
   </g>
   <g id="line2d_21">
    <path d="M 40.603125 183.796364 
L 42.824661 183.758277 
L 45.046196 183.701029 
L 47.267732 183.656694 
L 49.489267 183.625574 
L 51.710803 183.613268 
L 53.932339 183.592466 
L 56.153874 183.592075 
L 58.37541 183.581414 
L 60.596946 183.573135 
L 62.818481 183.549046 
L 65.040017 183.523012 
L 67.261552 183.519045 
L 69.483088 183.51732 
L 71.704624 183.492586 
L 73.926159 183.487108 
L 76.147695 183.486614 
L 78.36923 183.447767 
L 80.590766 183.364974 
L 82.812302 183.364297 
L 85.033837 183.308928 
L 87.255373 183.248556 
L 89.476909 183.170664 
L 91.698444 183.163405 
L 93.91998 183.099854 
L 96.141515 182.804722 
L 98.363051 182.632659 
L 100.584587 182.249586 
L 102.806122 182.063057 
L 105.027658 181.910832 
L 107.249194 181.496088 
L 109.470729 181.396991 
L 111.692265 181.091745 
L 113.9138 181.077448 
L 116.135336 180.955261 
L 118.356872 180.570532 
L 120.578407 180.43726 
L 122.799943 180.220329 
L 125.021478 179.545613 
L 127.243014 178.750117 
L 129.46455 177.777051 
L 131.686085 175.489091 
L 133.907621 175.292349 
L 136.129157 174.89655 
L 138.350692 171.637138 
L 140.572228 171.288469 
L 142.793763 169.430325 
L 145.015299 167.949445 
L 147.236835 167.312015 
L 149.45837 166.233479 
L 151.679906 165.835121 
L 153.901441 165.706726 
L 156.122977 165.389091 
L 158.344513 165.194318 
L 160.566048 164.899018 
L 162.787584 164.511374 
L 165.00912 164.421153 
L 167.230655 163.806348 
L 169.452191 162.886038 
L 171.673726 161.451347 
L 173.895262 161.310283 
L 176.116798 161.189466 
L 178.338333 160.976608 
L 180.559869 160.749905 
L 182.781405 160.555012 
L 185.00294 160.218056 
L 187.224476 159.497858 
L 189.446011 159.477495 
L 191.667547 157.931035 
L 193.889083 157.857534 
L 196.110618 156.305054 
L 198.332154 156.177209 
L 200.553689 155.817065 
L 202.775225 155.659845 
L 204.996761 155.425949 
L 207.218296 154.766472 
L 209.439832 154.692044 
L 211.661368 154.647729 
L 213.882903 154.528573 
L 216.104439 154.099881 
L 218.325974 151.85762 
L 220.54751 150.734377 
L 222.769046 147.990998 
L 224.990581 147.302772 
L 227.212117 146.933573 
L 229.433652 146.465631 
L 231.655188 145.355216 
L 233.876724 144.578939 
L 236.098259 144.380113 
L 238.319795 144.141364 
L 240.541331 140.416304 
L 242.762866 138.532475 
L 244.984402 135.236478 
L 247.205937 133.196768 
L 249.427473 132.818952 
L 251.649009 130.634747 
L 253.870544 130.070261 
L 256.09208 119.982608 
L 258.313616 118.935521 
L 260.535151 116.972804 
" clip-path="url(#p60cc387d9d)" style="fill: none; stroke: #f58518; stroke-width: 1.8; stroke-linecap: square"/>
    <defs>
     <path id="m49305d7f41" d="M -1.9 1.9 
L 1.9 1.9 
L 1.9 -1.9 
L -1.9 -1.9 
z
" style="stroke: #f58518; stroke-linejoin: miter"/>
    </defs>
    <g clip-path="url(#p60cc387d9d)">
     <use xlink:href="#m49305d7f41" x="40.603125" y="183.796364" style="fill: #f58518; stroke: #f58518; stroke-linejoin: miter"/>
     <use xlink:href="#m49305d7f41" x="67.261552" y="183.519045" style="fill: #f58518; stroke: #f58518; stroke-linejoin: miter"/>
     <use xlink:href="#m49305d7f41" x="93.91998" y="183.099854" style="fill: #f58518; stroke: #f58518; stroke-linejoin: miter"/>
     <use xlink:href="#m49305d7f41" x="120.578407" y="180.43726" style="fill: #f58518; stroke: #f58518; stroke-linejoin: miter"/>
     <use xlink:href="#m49305d7f41" x="147.236835" y="167.312015" style="fill: #f58518; stroke: #f58518; stroke-linejoin: miter"/>
     <use xlink:href="#m49305d7f41" x="173.895262" y="161.310283" style="fill: #f58518; stroke: #f58518; stroke-linejoin: miter"/>
     <use xlink:href="#m49305d7f41" x="200.553689" y="155.817065" style="fill: #f58518; stroke: #f58518; stroke-linejoin: miter"/>
     <use xlink:href="#m49305d7f41" x="227.212117" y="146.933573" style="fill: #f58518; stroke: #f58518; stroke-linejoin: miter"/>
     <use xlink:href="#m49305d7f41" x="253.870544" y="130.070261" style="fill: #f58518; stroke: #f58518; stroke-linejoin: miter"/>
    </g>
   </g>
   <g id="patch_3">
    <path d="M 40.603125 191.14 
L 40.603125 29.58 
" style="fill: none; stroke: #000000; stroke-width: 0.8; stroke-linejoin: miter; stroke-linecap: square"/>
   </g>
   <g id="patch_4">
    <path d="M 40.603125 191.14 
L 271.531752 191.14 
" style="fill: none; stroke: #000000; stroke-width: 0.8; stroke-linejoin: miter; stroke-linecap: square"/>
   </g>
   <g id="text_15">
    <!-- 3SAT-300 -->
    <g transform="translate(127.954626 23.58) scale(0.12 -0.12)">
     <defs>
      <path id="DejaVuSans-41" d="M 2188 4044 
L 1331 1722 
L 3047 1722 
L 2188 4044 
z
M 1831 4666 
L 2547 4666 
L 4325 0 
L 3669 0 
L 3244 1197 
L 1141 1197 
L 716 0 
L 50 0 
L 1831 4666 
z
" transform="scale(0.015625)"/>
      <path id="DejaVuSans-2d" d="M 313 2009 
L 1997 2009 
L 1997 1497 
L 313 1497 
L 313 2009 
z
" transform="scale(0.015625)"/>
     </defs>
     <use xlink:href="#DejaVuSans-33"/>
     <use xlink:href="#DejaVuSans-53" transform="translate(63.623047 0)"/>
     <use xlink:href="#DejaVuSans-41" transform="translate(128.974609 0)"/>
     <use xlink:href="#DejaVuSans-54" transform="translate(189.632812 0)"/>
     <use xlink:href="#DejaVuSans-2d" transform="translate(241.591797 0)"/>
     <use xlink:href="#DejaVuSans-33" transform="translate(277.675781 0)"/>
     <use xlink:href="#DejaVuSans-30" transform="translate(341.298828 0)"/>
     <use xlink:href="#DejaVuSans-30" transform="translate(404.921875 0)"/>
    </g>
   </g>
  </g>
  <g id="axes_2">
   <g id="patch_5">
    <path d="M 300.653811 191.14 
L 531.582439 191.14 
L 531.582439 29.58 
L 300.653811 29.58 
z
" style="fill: #ffffff"/>
   </g>
   <g id="matplotlib.axis_3">
    <g id="xtick_6">
     <g id="line2d_22">
      <g>
       <use xlink:href="#m9b16b86066" x="336.642688" y="191.14" style="stroke: #000000; stroke-width: 0.8"/>
      </g>
     </g>
     <g id="text_16">
      <!-- 10 -->
      <g transform="translate(330.280188 205.738437) scale(0.1 -0.1)">
       <use xlink:href="#DejaVuSans-31"/>
       <use xlink:href="#DejaVuSans-30" transform="translate(63.623047 0)"/>
      </g>
     </g>
    </g>
    <g id="xtick_7">
     <g id="line2d_23">
      <g>
       <use xlink:href="#m9b16b86066" x="376.630329" y="191.14" style="stroke: #000000; stroke-width: 0.8"/>
      </g>
     </g>
     <g id="text_17">
      <!-- 20 -->
      <g transform="translate(370.267829 205.738437) scale(0.1 -0.1)">
       <use xlink:href="#DejaVuSans-32"/>
       <use xlink:href="#DejaVuSans-30" transform="translate(63.623047 0)"/>
      </g>
     </g>
    </g>
    <g id="xtick_8">
     <g id="line2d_24">
      <g>
       <use xlink:href="#m9b16b86066" x="416.617971" y="191.14" style="stroke: #000000; stroke-width: 0.8"/>
      </g>
     </g>
     <g id="text_18">
      <!-- 30 -->
      <g transform="translate(410.255471 205.738437) scale(0.1 -0.1)">
       <use xlink:href="#DejaVuSans-33"/>
       <use xlink:href="#DejaVuSans-30" transform="translate(63.623047 0)"/>
      </g>
     </g>
    </g>
    <g id="xtick_9">
     <g id="line2d_25">
      <g>
       <use xlink:href="#m9b16b86066" x="456.605612" y="191.14" style="stroke: #000000; stroke-width: 0.8"/>
      </g>
     </g>
     <g id="text_19">
      <!-- 40 -->
      <g transform="translate(450.243112 205.738437) scale(0.1 -0.1)">
       <use xlink:href="#DejaVuSans-34"/>
       <use xlink:href="#DejaVuSans-30" transform="translate(63.623047 0)"/>
      </g>
     </g>
    </g>
    <g id="xtick_10">
     <g id="line2d_26">
      <g>
       <use xlink:href="#m9b16b86066" x="496.593253" y="191.14" style="stroke: #000000; stroke-width: 0.8"/>
      </g>
     </g>
     <g id="text_20">
      <!-- 50 -->
      <g transform="translate(490.230753 205.738437) scale(0.1 -0.1)">
       <use xlink:href="#DejaVuSans-35"/>
       <use xlink:href="#DejaVuSans-30" transform="translate(63.623047 0)"/>
      </g>
     </g>
    </g>
    <g id="text_21">
     <!-- Solved instances -->
     <g transform="translate(373.910312 219.416562) scale(0.1 -0.1)">
      <use xlink:href="#DejaVuSans-53"/>
      <use xlink:href="#DejaVuSans-6f" transform="translate(63.476562 0)"/>
      <use xlink:href="#DejaVuSans-6c" transform="translate(124.658203 0)"/>
      <use xlink:href="#DejaVuSans-76" transform="translate(152.441406 0)"/>
      <use xlink:href="#DejaVuSans-65" transform="translate(211.621094 0)"/>
      <use xlink:href="#DejaVuSans-64" transform="translate(273.144531 0)"/>
      <use xlink:href="#DejaVuSans-20" transform="translate(336.621094 0)"/>
      <use xlink:href="#DejaVuSans-69" transform="translate(368.408203 0)"/>
      <use xlink:href="#DejaVuSans-6e" transform="translate(396.191406 0)"/>
      <use xlink:href="#DejaVuSans-73" transform="translate(459.570312 0)"/>
      <use xlink:href="#DejaVuSans-74" transform="translate(511.669922 0)"/>
      <use xlink:href="#DejaVuSans-61" transform="translate(550.878906 0)"/>
      <use xlink:href="#DejaVuSans-6e" transform="translate(612.158203 0)"/>
      <use xlink:href="#DejaVuSans-63" transform="translate(675.537109 0)"/>
      <use xlink:href="#DejaVuSans-65" transform="translate(730.517578 0)"/>
      <use xlink:href="#DejaVuSans-73" transform="translate(792.041016 0)"/>
     </g>
    </g>
   </g>
   <g id="matplotlib.axis_4">
    <g id="ytick_8">
     <g id="line2d_27">
      <path d="M 300.653811 184.953267 
L 531.582439 184.953267 
" clip-path="url(#p7aa026a2f1)" style="fill: none; stroke-dasharray: 2.59,1.12; stroke-dashoffset: 0; stroke: #b0b0b0; stroke-opacity: 0.35; stroke-width: 0.7"/>
     </g>
     <g id="line2d_28">
      <g>
       <use xlink:href="#m30f53f93bc" x="300.653811" y="184.953267" style="stroke: #000000; stroke-width: 0.8"/>
      </g>
     </g>
    </g>
    <g id="ytick_9">
     <g id="line2d_29">
      <path d="M 300.653811 160.059684 
L 531.582439 160.059684 
" clip-path="url(#p7aa026a2f1)" style="fill: none; stroke-dasharray: 2.59,1.12; stroke-dashoffset: 0; stroke: #b0b0b0; stroke-opacity: 0.35; stroke-width: 0.7"/>
     </g>
     <g id="line2d_30">
      <g>
       <use xlink:href="#m30f53f93bc" x="300.653811" y="160.059684" style="stroke: #000000; stroke-width: 0.8"/>
      </g>
     </g>
    </g>
    <g id="ytick_10">
     <g id="line2d_31">
      <path d="M 300.653811 135.166101 
L 531.582439 135.166101 
" clip-path="url(#p7aa026a2f1)" style="fill: none; stroke-dasharray: 2.59,1.12; stroke-dashoffset: 0; stroke: #b0b0b0; stroke-opacity: 0.35; stroke-width: 0.7"/>
     </g>
     <g id="line2d_32">
      <g>
       <use xlink:href="#m30f53f93bc" x="300.653811" y="135.166101" style="stroke: #000000; stroke-width: 0.8"/>
      </g>
     </g>
    </g>
    <g id="ytick_11">
     <g id="line2d_33">
      <path d="M 300.653811 110.272518 
L 531.582439 110.272518 
" clip-path="url(#p7aa026a2f1)" style="fill: none; stroke-dasharray: 2.59,1.12; stroke-dashoffset: 0; stroke: #b0b0b0; stroke-opacity: 0.35; stroke-width: 0.7"/>
     </g>
     <g id="line2d_34">
      <g>
       <use xlink:href="#m30f53f93bc" x="300.653811" y="110.272518" style="stroke: #000000; stroke-width: 0.8"/>
      </g>
     </g>
    </g>
    <g id="ytick_12">
     <g id="line2d_35">
      <path d="M 300.653811 85.378935 
L 531.582439 85.378935 
" clip-path="url(#p7aa026a2f1)" style="fill: none; stroke-dasharray: 2.59,1.12; stroke-dashoffset: 0; stroke: #b0b0b0; stroke-opacity: 0.35; stroke-width: 0.7"/>
     </g>
     <g id="line2d_36">
      <g>
       <use xlink:href="#m30f53f93bc" x="300.653811" y="85.378935" style="stroke: #000000; stroke-width: 0.8"/>
      </g>
     </g>
    </g>
    <g id="ytick_13">
     <g id="line2d_37">
      <path d="M 300.653811 60.485352 
L 531.582439 60.485352 
" clip-path="url(#p7aa026a2f1)" style="fill: none; stroke-dasharray: 2.59,1.12; stroke-dashoffset: 0; stroke: #b0b0b0; stroke-opacity: 0.35; stroke-width: 0.7"/>
     </g>
     <g id="line2d_38">
      <g>
       <use xlink:href="#m30f53f93bc" x="300.653811" y="60.485352" style="stroke: #000000; stroke-width: 0.8"/>
      </g>
     </g>
    </g>
    <g id="ytick_14">
     <g id="line2d_39">
      <path d="M 300.653811 35.591768 
L 531.582439 35.591768 
" clip-path="url(#p7aa026a2f1)" style="fill: none; stroke-dasharray: 2.59,1.12; stroke-dashoffset: 0; stroke: #b0b0b0; stroke-opacity: 0.35; stroke-width: 0.7"/>
     </g>
     <g id="line2d_40">
      <g>
       <use xlink:href="#m30f53f93bc" x="300.653811" y="35.591768" style="stroke: #000000; stroke-width: 0.8"/>
      </g>
     </g>
    </g>
    <g id="text_22">
     <!-- Total time (s) -->
     <g transform="translate(291.074124 143.017031) rotate(-90) scale(0.1 -0.1)">
      <use xlink:href="#DejaVuSans-54"/>
      <use xlink:href="#DejaVuSans-6f" transform="translate(44.083984 0)"/>
      <use xlink:href="#DejaVuSans-74" transform="translate(105.265625 0)"/>
      <use xlink:href="#DejaVuSans-61" transform="translate(144.474609 0)"/>
      <use xlink:href="#DejaVuSans-6c" transform="translate(205.753906 0)"/>
      <use xlink:href="#DejaVuSans-20" transform="translate(233.537109 0)"/>
      <use xlink:href="#DejaVuSans-74" transform="translate(265.324219 0)"/>
      <use xlink:href="#DejaVuSans-69" transform="translate(304.533203 0)"/>
      <use xlink:href="#DejaVuSans-6d" transform="translate(332.316406 0)"/>
      <use xlink:href="#DejaVuSans-65" transform="translate(429.728516 0)"/>
      <use xlink:href="#DejaVuSans-20" transform="translate(491.251953 0)"/>
      <use xlink:href="#DejaVuSans-28" transform="translate(523.039062 0)"/>
      <use xlink:href="#DejaVuSans-73" transform="translate(562.052734 0)"/>
      <use xlink:href="#DejaVuSans-29" transform="translate(614.152344 0)"/>
     </g>
    </g>
   </g>
   <g id="line2d_41">
    <path d="M 300.653811 183.20659 
L 304.652575 183.187809 
L 308.651339 183.187396 
L 312.650104 183.178295 
L 316.648868 183.171203 
L 320.647632 183.162724 
L 324.646396 183.129639 
L 328.64516 183.089568 
L 332.643924 183.074109 
L 336.642688 183.069429 
L 340.641452 182.923711 
L 344.640217 182.855152 
L 348.638981 182.837343 
L 352.637745 182.802503 
L 356.636509 182.518141 
L 360.635273 182.489769 
L 364.634037 182.298659 
L 368.632801 182.063374 
L 372.631565 181.994093 
L 376.630329 181.95207 
L 380.629094 181.91754 
L 384.627858 181.911748 
L 388.626622 181.689507 
L 392.625386 180.969285 
L 396.62415 180.669786 
L 400.622914 178.810741 
L 404.621678 178.265699 
L 408.620442 177.828995 
L 412.619206 177.225791 
L 416.617971 174.52987 
L 420.616735 173.658723 
L 424.615499 171.602359 
L 428.614263 171.343687 
L 432.613027 163.835725 
L 436.611791 161.702082 
L 440.610555 156.825304 
L 444.609319 148.768621 
L 448.608083 147.6214 
L 452.606848 146.101494 
L 456.605612 141.737054 
L 460.604376 139.834065 
L 464.60314 128.336217 
L 468.601904 118.623459 
L 472.600668 117.997741 
L 476.599432 105.955861 
L 480.598196 104.923926 
L 484.59696 104.455632 
L 488.595725 103.441264 
L 492.594489 89.953423 
L 496.593253 89.271215 
L 500.592017 85.578223 
L 504.590781 82.6311 
L 508.589545 66.840229 
L 512.588309 54.95972 
L 516.587073 40.876709 
" clip-path="url(#p7aa026a2f1)" style="fill: none; stroke: #4c78a8; stroke-width: 1.8; stroke-linecap: square"/>
    <g clip-path="url(#p7aa026a2f1)">
     <use xlink:href="#md4e2b9cfa8" x="300.653811" y="183.20659" style="fill: #4c78a8; stroke: #4c78a8"/>
     <use xlink:href="#md4e2b9cfa8" x="324.646396" y="183.129639" style="fill: #4c78a8; stroke: #4c78a8"/>
     <use xlink:href="#md4e2b9cfa8" x="348.638981" y="182.837343" style="fill: #4c78a8; stroke: #4c78a8"/>
     <use xlink:href="#md4e2b9cfa8" x="372.631565" y="181.994093" style="fill: #4c78a8; stroke: #4c78a8"/>
     <use xlink:href="#md4e2b9cfa8" x="396.62415" y="180.669786" style="fill: #4c78a8; stroke: #4c78a8"/>
     <use xlink:href="#md4e2b9cfa8" x="420.616735" y="173.658723" style="fill: #4c78a8; stroke: #4c78a8"/>
     <use xlink:href="#md4e2b9cfa8" x="444.609319" y="148.768621" style="fill: #4c78a8; stroke: #4c78a8"/>
     <use xlink:href="#md4e2b9cfa8" x="468.601904" y="118.623459" style="fill: #4c78a8; stroke: #4c78a8"/>
     <use xlink:href="#md4e2b9cfa8" x="492.594489" y="89.953423" style="fill: #4c78a8; stroke: #4c78a8"/>
     <use xlink:href="#md4e2b9cfa8" x="516.587073" y="40.876709" style="fill: #4c78a8; stroke: #4c78a8"/>
    </g>
   </g>
   <g id="line2d_42">
    <path d="M 300.653811 183.116069 
L 304.652575 183.063657 
L 308.651339 183.06363 
L 312.650104 183.018551 
L 316.648868 183.017539 
L 320.647632 183.012533 
L 324.646396 183.002657 
L 328.64516 182.969115 
L 332.643924 182.923297 
L 336.642688 182.831666 
L 340.641452 182.762655 
L 344.640217 182.743073 
L 348.638981 182.672871 
L 352.637745 182.417734 
L 356.636509 182.373435 
L 360.635273 182.254061 
L 364.634037 181.973023 
L 368.632801 181.819862 
L 372.631565 181.727043 
L 376.630329 181.719367 
L 380.629094 181.638584 
L 384.627858 181.563593 
L 388.626622 181.471056 
L 392.625386 180.418208 
L 396.62415 178.465193 
L 400.622914 178.187273 
L 404.621678 177.838497 
L 408.620442 177.562427 
L 412.619206 177.190609 
L 416.617971 175.752074 
L 420.616735 174.642385 
L 424.615499 173.51428 
L 428.614263 171.450113 
L 432.613027 170.831499 
L 436.611791 163.243523 
L 440.610555 161.38581 
L 444.609319 157.118571 
L 448.608083 148.057778 
L 452.606848 147.685738 
L 456.605612 147.007511 
L 460.604376 141.147055 
L 464.60314 140.279353 
L 468.601904 126.378131 
L 472.600668 118.095294 
L 476.599432 117.278015 
L 480.598196 106.624212 
L 484.59696 102.415139 
L 488.595725 102.315968 
L 492.594489 95.312038 
L 496.593253 92.739279 
L 500.592017 87.190147 
L 504.590781 84.587232 
L 508.589545 78.336503 
L 512.588309 66.744934 
L 516.587073 59.497898 
L 520.585837 36.923636 
" clip-path="url(#p7aa026a2f1)" style="fill: none; stroke: #f58518; stroke-width: 1.8; stroke-linecap: square"/>
    <g clip-path="url(#p7aa026a2f1)">
     <use xlink:href="#m49305d7f41" x="300.653811" y="183.116069" style="fill: #f58518; stroke: #f58518; stroke-linejoin: miter"/>
     <use xlink:href="#m49305d7f41" x="328.64516" y="182.969115" style="fill: #f58518; stroke: #f58518; stroke-linejoin: miter"/>
     <use xlink:href="#m49305d7f41" x="356.636509" y="182.373435" style="fill: #f58518; stroke: #f58518; stroke-linejoin: miter"/>
     <use xlink:href="#m49305d7f41" x="384.627858" y="181.563593" style="fill: #f58518; stroke: #f58518; stroke-linejoin: miter"/>
     <use xlink:href="#m49305d7f41" x="412.619206" y="177.190609" style="fill: #f58518; stroke: #f58518; stroke-linejoin: miter"/>
     <use xlink:href="#m49305d7f41" x="440.610555" y="161.38581" style="fill: #f58518; stroke: #f58518; stroke-linejoin: miter"/>
     <use xlink:href="#m49305d7f41" x="468.601904" y="126.378131" style="fill: #f58518; stroke: #f58518; stroke-linejoin: miter"/>
     <use xlink:href="#m49305d7f41" x="496.593253" y="92.739279" style="fill: #f58518; stroke: #f58518; stroke-linejoin: miter"/>
    </g>
   </g>
   <g id="patch_6">
    <path d="M 300.653811 191.14 
L 300.653811 29.58 
" style="fill: none; stroke: #000000; stroke-width: 0.8; stroke-linejoin: miter; stroke-linecap: square"/>
   </g>
   <g id="patch_7">
    <path d="M 300.653811 191.14 
L 531.582439 191.14 
" style="fill: none; stroke: #000000; stroke-width: 0.8; stroke-linejoin: miter; stroke-linecap: square"/>
   </g>
   <g id="text_23">
    <!-- 3SAT-350 -->
    <g transform="translate(388.005312 23.58) scale(0.12 -0.12)">
     <use xlink:href="#DejaVuSans-33"/>
     <use xlink:href="#DejaVuSans-53" transform="translate(63.623047 0)"/>
     <use xlink:href="#DejaVuSans-41" transform="translate(128.974609 0)"/>
     <use xlink:href="#DejaVuSans-54" transform="translate(189.632812 0)"/>
     <use xlink:href="#DejaVuSans-2d" transform="translate(241.591797 0)"/>
     <use xlink:href="#DejaVuSans-33" transform="translate(277.675781 0)"/>
     <use xlink:href="#DejaVuSans-35" transform="translate(341.298828 0)"/>
     <use xlink:href="#DejaVuSans-30" transform="translate(404.921875 0)"/>
    </g>
   </g>
  </g>
  <g id="axes_3">
   <g id="patch_8">
    <path d="M 560.704498 191.14 
L 791.633125 191.14 
L 791.633125 29.58 
L 560.704498 29.58 
z
" style="fill: #ffffff"/>
   </g>
   <g id="matplotlib.axis_5">
    <g id="xtick_11">
     <g id="line2d_43">
      <g>
       <use xlink:href="#m9b16b86066" x="602.596312" y="191.14" style="stroke: #000000; stroke-width: 0.8"/>
      </g>
     </g>
     <g id="text_24">
      <!-- 5 -->
      <g transform="translate(599.415062 205.738437) scale(0.1 -0.1)">
       <use xlink:href="#DejaVuSans-35"/>
      </g>
     </g>
    </g>
    <g id="xtick_12">
     <g id="line2d_44">
      <g>
       <use xlink:href="#m9b16b86066" x="654.96108" y="191.14" style="stroke: #000000; stroke-width: 0.8"/>
      </g>
     </g>
     <g id="text_25">
      <!-- 10 -->
      <g transform="translate(648.59858 205.738437) scale(0.1 -0.1)">
       <use xlink:href="#DejaVuSans-31"/>
       <use xlink:href="#DejaVuSans-30" transform="translate(63.623047 0)"/>
      </g>
     </g>
    </g>
    <g id="xtick_13">
     <g id="line2d_45">
      <g>
       <use xlink:href="#m9b16b86066" x="707.325848" y="191.14" style="stroke: #000000; stroke-width: 0.8"/>
      </g>
     </g>
     <g id="text_26">
      <!-- 15 -->
      <g transform="translate(700.963348 205.738437) scale(0.1 -0.1)">
       <use xlink:href="#DejaVuSans-31"/>
       <use xlink:href="#DejaVuSans-35" transform="translate(63.623047 0)"/>
      </g>
     </g>
    </g>
    <g id="xtick_14">
     <g id="line2d_46">
      <g>
       <use xlink:href="#m9b16b86066" x="759.690616" y="191.14" style="stroke: #000000; stroke-width: 0.8"/>
      </g>
     </g>
     <g id="text_27">
      <!-- 20 -->
      <g transform="translate(753.328116 205.738437) scale(0.1 -0.1)">
       <use xlink:href="#DejaVuSans-32"/>
       <use xlink:href="#DejaVuSans-30" transform="translate(63.623047 0)"/>
      </g>
     </g>
    </g>
    <g id="text_28">
     <!-- Solved instances -->
     <g transform="translate(633.960999 219.416562) scale(0.1 -0.1)">
      <use xlink:href="#DejaVuSans-53"/>
      <use xlink:href="#DejaVuSans-6f" transform="translate(63.476562 0)"/>
      <use xlink:href="#DejaVuSans-6c" transform="translate(124.658203 0)"/>
      <use xlink:href="#DejaVuSans-76" transform="translate(152.441406 0)"/>
      <use xlink:href="#DejaVuSans-65" transform="translate(211.621094 0)"/>
      <use xlink:href="#DejaVuSans-64" transform="translate(273.144531 0)"/>
      <use xlink:href="#DejaVuSans-20" transform="translate(336.621094 0)"/>
      <use xlink:href="#DejaVuSans-69" transform="translate(368.408203 0)"/>
      <use xlink:href="#DejaVuSans-6e" transform="translate(396.191406 0)"/>
      <use xlink:href="#DejaVuSans-73" transform="translate(459.570312 0)"/>
      <use xlink:href="#DejaVuSans-74" transform="translate(511.669922 0)"/>
      <use xlink:href="#DejaVuSans-61" transform="translate(550.878906 0)"/>
      <use xlink:href="#DejaVuSans-6e" transform="translate(612.158203 0)"/>
      <use xlink:href="#DejaVuSans-63" transform="translate(675.537109 0)"/>
      <use xlink:href="#DejaVuSans-65" transform="translate(730.517578 0)"/>
      <use xlink:href="#DejaVuSans-73" transform="translate(792.041016 0)"/>
     </g>
    </g>
   </g>
   <g id="matplotlib.axis_6">
    <g id="ytick_15">
     <g id="line2d_47">
      <path d="M 560.704498 184.953267 
L 791.633125 184.953267 
" clip-path="url(#p3f5986ae9e)" style="fill: none; stroke-dasharray: 2.59,1.12; stroke-dashoffset: 0; stroke: #b0b0b0; stroke-opacity: 0.35; stroke-width: 0.7"/>
     </g>
     <g id="line2d_48">
      <g>
       <use xlink:href="#m30f53f93bc" x="560.704498" y="184.953267" style="stroke: #000000; stroke-width: 0.8"/>
      </g>
     </g>
    </g>
    <g id="ytick_16">
     <g id="line2d_49">
      <path d="M 560.704498 160.059684 
L 791.633125 160.059684 
" clip-path="url(#p3f5986ae9e)" style="fill: none; stroke-dasharray: 2.59,1.12; stroke-dashoffset: 0; stroke: #b0b0b0; stroke-opacity: 0.35; stroke-width: 0.7"/>
     </g>
     <g id="line2d_50">
      <g>
       <use xlink:href="#m30f53f93bc" x="560.704498" y="160.059684" style="stroke: #000000; stroke-width: 0.8"/>
      </g>
     </g>
    </g>
    <g id="ytick_17">
     <g id="line2d_51">
      <path d="M 560.704498 135.166101 
L 791.633125 135.166101 
" clip-path="url(#p3f5986ae9e)" style="fill: none; stroke-dasharray: 2.59,1.12; stroke-dashoffset: 0; stroke: #b0b0b0; stroke-opacity: 0.35; stroke-width: 0.7"/>
     </g>
     <g id="line2d_52">
      <g>
       <use xlink:href="#m30f53f93bc" x="560.704498" y="135.166101" style="stroke: #000000; stroke-width: 0.8"/>
      </g>
     </g>
    </g>
    <g id="ytick_18">
     <g id="line2d_53">
      <path d="M 560.704498 110.272518 
L 791.633125 110.272518 
" clip-path="url(#p3f5986ae9e)" style="fill: none; stroke-dasharray: 2.59,1.12; stroke-dashoffset: 0; stroke: #b0b0b0; stroke-opacity: 0.35; stroke-width: 0.7"/>
     </g>
     <g id="line2d_54">
      <g>
       <use xlink:href="#m30f53f93bc" x="560.704498" y="110.272518" style="stroke: #000000; stroke-width: 0.8"/>
      </g>
     </g>
    </g>
    <g id="ytick_19">
     <g id="line2d_55">
      <path d="M 560.704498 85.378935 
L 791.633125 85.378935 
" clip-path="url(#p3f5986ae9e)" style="fill: none; stroke-dasharray: 2.59,1.12; stroke-dashoffset: 0; stroke: #b0b0b0; stroke-opacity: 0.35; stroke-width: 0.7"/>
     </g>
     <g id="line2d_56">
      <g>
       <use xlink:href="#m30f53f93bc" x="560.704498" y="85.378935" style="stroke: #000000; stroke-width: 0.8"/>
      </g>
     </g>
    </g>
    <g id="ytick_20">
     <g id="line2d_57">
      <path d="M 560.704498 60.485352 
L 791.633125 60.485352 
" clip-path="url(#p3f5986ae9e)" style="fill: none; stroke-dasharray: 2.59,1.12; stroke-dashoffset: 0; stroke: #b0b0b0; stroke-opacity: 0.35; stroke-width: 0.7"/>
     </g>
     <g id="line2d_58">
      <g>
       <use xlink:href="#m30f53f93bc" x="560.704498" y="60.485352" style="stroke: #000000; stroke-width: 0.8"/>
      </g>
     </g>
    </g>
    <g id="ytick_21">
     <g id="line2d_59">
      <path d="M 560.704498 35.591768 
L 791.633125 35.591768 
" clip-path="url(#p3f5986ae9e)" style="fill: none; stroke-dasharray: 2.59,1.12; stroke-dashoffset: 0; stroke: #b0b0b0; stroke-opacity: 0.35; stroke-width: 0.7"/>
     </g>
     <g id="line2d_60">
      <g>
       <use xlink:href="#m30f53f93bc" x="560.704498" y="35.591768" style="stroke: #000000; stroke-width: 0.8"/>
      </g>
     </g>
    </g>
    <g id="text_29">
     <!-- Total time (s) -->
     <g transform="translate(551.12481 143.017031) rotate(-90) scale(0.1 -0.1)">
      <use xlink:href="#DejaVuSans-54"/>
      <use xlink:href="#DejaVuSans-6f" transform="translate(44.083984 0)"/>
      <use xlink:href="#DejaVuSans-74" transform="translate(105.265625 0)"/>
      <use xlink:href="#DejaVuSans-61" transform="translate(144.474609 0)"/>
      <use xlink:href="#DejaVuSans-6c" transform="translate(205.753906 0)"/>
      <use xlink:href="#DejaVuSans-20" transform="translate(233.537109 0)"/>
      <use xlink:href="#DejaVuSans-74" transform="translate(265.324219 0)"/>
      <use xlink:href="#DejaVuSans-69" transform="translate(304.533203 0)"/>
      <use xlink:href="#DejaVuSans-6d" transform="translate(332.316406 0)"/>
      <use xlink:href="#DejaVuSans-65" transform="translate(429.728516 0)"/>
      <use xlink:href="#DejaVuSans-20" transform="translate(491.251953 0)"/>
      <use xlink:href="#DejaVuSans-28" transform="translate(523.039062 0)"/>
      <use xlink:href="#DejaVuSans-73" transform="translate(562.052734 0)"/>
      <use xlink:href="#DejaVuSans-29" transform="translate(614.152344 0)"/>
     </g>
    </g>
   </g>
   <g id="line2d_61">
    <path d="M 560.704498 182.808024 
L 571.177451 182.686401 
L 581.650405 182.487546 
L 592.123358 182.406807 
L 602.596312 182.345733 
L 613.069266 182.04233 
L 623.542219 180.433687 
L 634.015173 179.008374 
L 644.488127 178.640547 
L 654.96108 177.038968 
L 665.434034 176.797799 
L 675.906987 176.521403 
L 686.379941 176.463451 
L 696.852895 176.449031 
L 707.325848 176.056017 
L 717.798802 172.329448 
L 728.271756 165.0523 
L 738.744709 156.083301 
L 749.217663 132.329909 
L 759.690616 120.020941 
L 770.16357 107.143739 
L 780.636524 53.960659 
" clip-path="url(#p3f5986ae9e)" style="fill: none; stroke: #4c78a8; stroke-width: 1.8; stroke-linecap: square"/>
    <g clip-path="url(#p3f5986ae9e)">
     <use xlink:href="#md4e2b9cfa8" x="560.704498" y="182.808024" style="fill: #4c78a8; stroke: #4c78a8"/>
     <use xlink:href="#md4e2b9cfa8" x="581.650405" y="182.487546" style="fill: #4c78a8; stroke: #4c78a8"/>
     <use xlink:href="#md4e2b9cfa8" x="602.596312" y="182.345733" style="fill: #4c78a8; stroke: #4c78a8"/>
     <use xlink:href="#md4e2b9cfa8" x="623.542219" y="180.433687" style="fill: #4c78a8; stroke: #4c78a8"/>
     <use xlink:href="#md4e2b9cfa8" x="644.488127" y="178.640547" style="fill: #4c78a8; stroke: #4c78a8"/>
     <use xlink:href="#md4e2b9cfa8" x="665.434034" y="176.797799" style="fill: #4c78a8; stroke: #4c78a8"/>
     <use xlink:href="#md4e2b9cfa8" x="686.379941" y="176.463451" style="fill: #4c78a8; stroke: #4c78a8"/>
     <use xlink:href="#md4e2b9cfa8" x="707.325848" y="176.056017" style="fill: #4c78a8; stroke: #4c78a8"/>
     <use xlink:href="#md4e2b9cfa8" x="728.271756" y="165.0523" style="fill: #4c78a8; stroke: #4c78a8"/>
     <use xlink:href="#md4e2b9cfa8" x="749.217663" y="132.329909" style="fill: #4c78a8; stroke: #4c78a8"/>
     <use xlink:href="#md4e2b9cfa8" x="770.16357" y="107.143739" style="fill: #4c78a8; stroke: #4c78a8"/>
    </g>
   </g>
   <g id="line2d_62">
    <path d="M 560.704498 182.389029 
L 571.177451 182.357041 
L 581.650405 182.150205 
L 592.123358 181.80929 
L 602.596312 181.774698 
L 613.069266 181.58889 
L 623.542219 181.372445 
L 634.015173 181.189143 
L 644.488127 179.699755 
L 654.96108 178.208184 
L 665.434034 178.081513 
L 675.906987 176.827578 
L 686.379941 176.597602 
L 696.852895 176.156664 
L 707.325848 176.064859 
L 717.798802 175.731745 
L 728.271756 172.25152 
L 738.744709 164.611189 
L 749.217663 158.514241 
L 759.690616 155.029216 
L 770.16357 94.864293 
L 780.636524 50.885938 
" clip-path="url(#p3f5986ae9e)" style="fill: none; stroke: #f58518; stroke-width: 1.8; stroke-linecap: square"/>
    <g clip-path="url(#p3f5986ae9e)">
     <use xlink:href="#m49305d7f41" x="560.704498" y="182.389029" style="fill: #f58518; stroke: #f58518; stroke-linejoin: miter"/>
     <use xlink:href="#m49305d7f41" x="581.650405" y="182.150205" style="fill: #f58518; stroke: #f58518; stroke-linejoin: miter"/>
     <use xlink:href="#m49305d7f41" x="602.596312" y="181.774698" style="fill: #f58518; stroke: #f58518; stroke-linejoin: miter"/>
     <use xlink:href="#m49305d7f41" x="623.542219" y="181.372445" style="fill: #f58518; stroke: #f58518; stroke-linejoin: miter"/>
     <use xlink:href="#m49305d7f41" x="644.488127" y="179.699755" style="fill: #f58518; stroke: #f58518; stroke-linejoin: miter"/>
     <use xlink:href="#m49305d7f41" x="665.434034" y="178.081513" style="fill: #f58518; stroke: #f58518; stroke-linejoin: miter"/>
     <use xlink:href="#m49305d7f41" x="686.379941" y="176.597602" style="fill: #f58518; stroke: #f58518; stroke-linejoin: miter"/>
     <use xlink:href="#m49305d7f41" x="707.325848" y="176.064859" style="fill: #f58518; stroke: #f58518; stroke-linejoin: miter"/>
     <use xlink:href="#m49305d7f41" x="728.271756" y="172.25152" style="fill: #f58518; stroke: #f58518; stroke-linejoin: miter"/>
     <use xlink:href="#m49305d7f41" x="749.217663" y="158.514241" style="fill: #f58518; stroke: #f58518; stroke-linejoin: miter"/>
     <use xlink:href="#m49305d7f41" x="770.16357" y="94.864293" style="fill: #f58518; stroke: #f58518; stroke-linejoin: miter"/>
    </g>
   </g>
   <g id="patch_9">
    <path d="M 560.704498 191.14 
L 560.704498 29.58 
" style="fill: none; stroke: #000000; stroke-width: 0.8; stroke-linejoin: miter; stroke-linecap: square"/>
   </g>
   <g id="patch_10">
    <path d="M 560.704498 191.14 
L 791.633125 191.14 
" style="fill: none; stroke: #000000; stroke-width: 0.8; stroke-linejoin: miter; stroke-linecap: square"/>
   </g>
   <g id="text_30">
    <!-- 3SAT-400 -->
    <g transform="translate(648.055999 23.58) scale(0.12 -0.12)">
     <use xlink:href="#DejaVuSans-33"/>
     <use xlink:href="#DejaVuSans-53" transform="translate(63.623047 0)"/>
     <use xlink:href="#DejaVuSans-41" transform="translate(128.974609 0)"/>
     <use xlink:href="#DejaVuSans-54" transform="translate(189.632812 0)"/>
     <use xlink:href="#DejaVuSans-2d" transform="translate(241.591797 0)"/>
     <use xlink:href="#DejaVuSans-34" transform="translate(277.675781 0)"/>
     <use xlink:href="#DejaVuSans-30" transform="translate(341.298828 0)"/>
     <use xlink:href="#DejaVuSans-30" transform="translate(404.921875 0)"/>
    </g>
   </g>
  </g>
  <g id="legend_1">
   <g id="line2d_63">
    <path d="M 316.561016 11.788594 
L 325.561016 11.788594 
L 334.561016 11.788594 
" style="fill: none; stroke: #4c78a8; stroke-width: 1.8; stroke-linecap: square"/>
    <g>
     <use xlink:href="#md4e2b9cfa8" x="325.561016" y="11.788594" style="fill: #4c78a8; stroke: #4c78a8"/>
    </g>
   </g>
   <g id="text_31">
    <!-- one-shot -->
    <g transform="translate(341.761016 14.938594) scale(0.09 -0.09)">
     <defs>
      <path id="DejaVuSans-68" d="M 3513 2113 
L 3513 0 
L 2938 0 
L 2938 2094 
Q 2938 2591 2744 2837 
Q 2550 3084 2163 3084 
Q 1697 3084 1428 2787 
Q 1159 2491 1159 1978 
L 1159 0 
L 581 0 
L 581 4863 
L 1159 4863 
L 1159 2956 
Q 1366 3272 1645 3428 
Q 1925 3584 2291 3584 
Q 2894 3584 3203 3211 
Q 3513 2838 3513 2113 
z
" transform="scale(0.015625)"/>
     </defs>
     <use xlink:href="#DejaVuSans-6f"/>
     <use xlink:href="#DejaVuSans-6e" transform="translate(61.181641 0)"/>
     <use xlink:href="#DejaVuSans-65" transform="translate(124.560547 0)"/>
     <use xlink:href="#DejaVuSans-2d" transform="translate(186.083984 0)"/>
     <use xlink:href="#DejaVuSans-73" transform="translate(222.167969 0)"/>
     <use xlink:href="#DejaVuSans-68" transform="translate(274.267578 0)"/>
     <use xlink:href="#DejaVuSans-6f" transform="translate(337.646484 0)"/>
     <use xlink:href="#DejaVuSans-74" transform="translate(398.828125 0)"/>
    </g>
   </g>
   <g id="line2d_64">
    <path d="M 399.183828 11.788594 
L 408.183828 11.788594 
L 417.183828 11.788594 
" style="fill: none; stroke: #f58518; stroke-width: 1.8; stroke-linecap: square"/>
    <g>
     <use xlink:href="#m49305d7f41" x="408.183828" y="11.788594" style="fill: #f58518; stroke: #f58518; stroke-linejoin: miter"/>
    </g>
   </g>
   <g id="text_32">
    <!-- compact risk -->
    <g transform="translate(424.383828 14.938594) scale(0.09 -0.09)">
     <defs>
      <path id="DejaVuSans-70" d="M 1159 525 
L 1159 -1331 
L 581 -1331 
L 581 3500 
L 1159 3500 
L 1159 2969 
Q 1341 3281 1617 3432 
Q 1894 3584 2278 3584 
Q 2916 3584 3314 3078 
Q 3713 2572 3713 1747 
Q 3713 922 3314 415 
Q 2916 -91 2278 -91 
Q 1894 -91 1617 61 
Q 1341 213 1159 525 
z
M 3116 1747 
Q 3116 2381 2855 2742 
Q 2594 3103 2138 3103 
Q 1681 3103 1420 2742 
Q 1159 2381 1159 1747 
Q 1159 1113 1420 752 
Q 1681 391 2138 391 
Q 2594 391 2855 752 
Q 3116 1113 3116 1747 
z
" transform="scale(0.015625)"/>
      <path id="DejaVuSans-72" d="M 2631 2963 
Q 2534 3019 2420 3045 
Q 2306 3072 2169 3072 
Q 1681 3072 1420 2755 
Q 1159 2438 1159 1844 
L 1159 0 
L 581 0 
L 581 3500 
L 1159 3500 
L 1159 2956 
Q 1341 3275 1631 3429 
Q 1922 3584 2338 3584 
Q 2397 3584 2469 3576 
Q 2541 3569 2628 3553 
L 2631 2963 
z
" transform="scale(0.015625)"/>
      <path id="DejaVuSans-6b" d="M 581 4863 
L 1159 4863 
L 1159 1991 
L 2875 3500 
L 3609 3500 
L 1753 1863 
L 3688 0 
L 2938 0 
L 1159 1709 
L 1159 0 
L 581 0 
L 581 4863 
z
" transform="scale(0.015625)"/>
     </defs>
     <use xlink:href="#DejaVuSans-63"/>
     <use xlink:href="#DejaVuSans-6f" transform="translate(54.980469 0)"/>
     <use xlink:href="#DejaVuSans-6d" transform="translate(116.162109 0)"/>
     <use xlink:href="#DejaVuSans-70" transform="translate(213.574219 0)"/>
     <use xlink:href="#DejaVuSans-61" transform="translate(277.050781 0)"/>
     <use xlink:href="#DejaVuSans-63" transform="translate(338.330078 0)"/>
     <use xlink:href="#DejaVuSans-74" transform="translate(393.310547 0)"/>
     <use xlink:href="#DejaVuSans-20" transform="translate(432.519531 0)"/>
     <use xlink:href="#DejaVuSans-72" transform="translate(464.306641 0)"/>
     <use xlink:href="#DejaVuSans-69" transform="translate(505.419922 0)"/>
     <use xlink:href="#DejaVuSans-73" transform="translate(533.203125 0)"/>
     <use xlink:href="#DejaVuSans-6b" transform="translate(585.302734 0)"/>
    </g>
   </g>
  </g>
 </g>
 <defs>
  <clipPath id="p60cc387d9d">
   <rect x="40.603125" y="29.58" width="230.928627" height="161.56"/>
  </clipPath>
  <clipPath id="p7aa026a2f1">
   <rect x="300.653811" y="29.58" width="230.928627" height="161.56"/>
  </clipPath>
  <clipPath id="p3f5986ae9e">
   <rect x="560.704498" y="29.58" width="230.928627" height="161.56"/>
  </clipPath>
 </defs>
</svg>
